#!OML:ASF H:\ManfredETheater\Project 1\Capture day 1\Session 1\subject.ASF
:FULLY-SPECIFIED
:DEGREES
262
root 1.37204 17.326 26.0822 -164.752 -2.05518 178.481
lowerback 7.69398 -1.46021 0.00817885
upperback -1.29911 -1.86335 3.18684
thorax -5.56973 -0.903796 3.55853
lowerneck -18.8907 -0.608421 -1.32229
upperneck 14.7014 -0.282734 -0.76583
head 7.63325 -0.272476 -0.0702514
rclavicle 1.0138e-014 -1.74931e-014
rhumerus -42.7075 -13.3417 -73.2747
rradius 31.9635
rwrist 0.678925
rhand -18.458 -12.2133
rfingers 7.12502
rthumb 7.82828 -42.0484
lclavicle 1.0138e-014 -1.74931e-014
lhumerus -35.2249 -0.021145 89.2998
lradius 40.5355
lwrist -8.34126
lhand -11.8374 10.5077
lfingers 7.12502
lthumb 14.2137 40.0014
rfemur -38.074 0.206575 19.0307
rtibia 38.274
rfoot -14.6868 -3.18638
rtoes 10.2041
lfemur -12.1719 -6.38418 -19.4282
ltibia 49.4657
lfoot 11.2598 -6.92366
ltoes -10.5737
263
root 1.39152 17.3393 25.9335 -164.843 -2.20024 178.771
lowerback 7.8581 -1.40779 0.379047
upperback -1.27494 -1.75993 3.26703
thorax -5.65236 -0.866699 3.427
lowerneck -18.8886 -0.668717 -1.35301
upperneck 14.6066 -0.358345 -0.768586
head 7.60171 -0.310578 -0.0750558
rclavicle 1.55052e-014 -3.97569e-015
rhumerus -42.7716 -12.9912 -73.4915
rradius 32.1864
rwrist 0.490943
rhand -18.3786 -12.1635
rfingers 7.12502
rthumb 7.90496 -41.9957
lclavicle 1.55052e-014 -3.97569e-015
lhumerus -35.4064 -0.611285 89.5945
lradius 41.2536
lwrist -8.22102
lhand -11.7372 10.2758
lfingers 7.12502
lthumb 14.3102 39.7627
rfemur -37.2361 0.233557 19.4693
rtibia 38.0022
rfoot -15.0537 -3.14556
rtoes 10.6905
lfemur -13.4269 -6.30458 -18.9543
ltibia 51.7034
lfoot 12.9353 -7.27457
ltoes -7.01934
264
root 1.41054 17.3511 25.7856 -164.948 -2.34183 179.072
lowerback 8.03265 -1.3528 0.752212
upperback -1.23799 -1.6523 3.34637
thorax -5.72681 -0.828302 3.29241
lowerneck -18.8811 -0.731319 -1.39038
upperneck 14.4953 -0.439307 -0.753132
head 7.5639 -0.349831 -0.0733153
rclavicle 1.98785e-015 -5.00937e-014
rhumerus -42.7929 -12.6122 -73.7378
rradius 32.4117
rwrist 0.289096
rhand -18.3188 -12.1132
rfingers 7.12502
rthumb 7.96265 -41.9432
lclavicle 1.98785e-015 -5.00937e-014
lhumerus -35.5779 -1.18665 89.8805
lradius 41.9887
lwrist -8.10673
lhand -11.67 10.0301
lfingers 7.12502
lthumb 14.375 39.5124
rfemur -36.385 0.258847 19.9217
rtibia 37.7208
rfoot -15.398 -3.1164
rtoes 11.1296
lfemur -14.7112 -6.19937 -18.4829
ltibia 53.9424
lfoot 14.1966 -7.49908
ltoes -3.74174
265
root 1.42919 17.3615 25.6381 -165.058 -2.47935 179.375
lowerback 8.2004 -1.29682 1.11812
upperback -1.1897 -1.54383 3.4227
thorax -5.78434 -0.789861 3.15766
lowerneck -18.8631 -0.794454 -1.43227
upperneck 14.3658 -0.52318 -0.722631
head 7.5184 -0.389231 -0.0660981
rclavicle 4.96962e-014 -3.97569e-015
rhumerus -42.7645 -12.2207 -74.0051
rradius 32.6219
rwrist 0.0911379
rhand -18.2913 -12.0832
rfingers 7.12502
rthumb 7.98922 -41.9122
lclavicle 4.96962e-014 -3.97569e-015
lhumerus -35.7369 -1.72974 90.151
lradius 42.7298
lwrist -7.98912
lhand -11.638 9.7842
lfingers 7.12502
lthumb 14.4058 39.2643
rfemur -35.5322 0.285329 20.377
rtibia 37.4352
rfoot -15.7229 -3.10879
rtoes 11.4944
lfemur -16.0238 -6.06779 -18.0235
ltibia 56.1583
lfoot 14.9247 -7.60594
ltoes -1.00228
266
root 1.44761 17.3704 25.4906 -165.161 -2.60922 179.669
lowerback 8.35405 -1.23867 1.46369
upperback -1.13525 -1.4343 3.49415
thorax -5.82596 -0.750553 3.02806
lowerneck -18.8359 -0.858566 -1.47943
upperneck 14.2231 -0.609974 -0.677856
head 7.46715 -0.428907 -0.0535467
rclavicle -2.22639e-014 7.95139e-016
rhumerus -42.682 -11.8344 -74.2817
rradius 32.7983
rwrist -0.0779253
rhand -18.2944 -12.0591
rfingers 7.12502
rthumb 7.98616 -41.8882
lclavicle -2.22639e-014 7.95139e-016
lhumerus -35.8838 -2.23145 90.4034
lradius 43.4677
lwrist -7.85787
lhand -11.6461 9.55805
lfingers 7.12502
lthumb 14.398 39.0387
rfemur -34.6917 0.317743 20.8228
rtibia 37.1515
rfoot -16.0362 -3.12772
rtoes 11.7768
lfemur -17.3675 -5.90262 -17.5856
ltibia 58.3284
lfoot 15.0603 -7.60679
ltoes 1.04635
267
root 1.46591 17.3779 25.343 -165.244 -2.72694 179.943
lowerback 8.48182 -1.17788 1.7733
upperback -1.08171 -1.32483 3.56007
thorax -5.85211 -0.71011 2.91173
lowerneck -18.7942 -0.92194 -1.53261
upperneck 14.0711 -0.696351 -0.622285
head 7.4106 -0.467609 -0.0362735
rclavicle -9.14409e-015 -1.59028e-014
rhumerus -42.5559 -11.446 -74.5655
rradius 32.9426
rwrist -0.204514
rhand -18.3427 -12.0294
rfingers 7.12502
rthumb 7.9396 -41.8603
lclavicle -9.14409e-015 -1.59028e-014
lhumerus -36.0239 -2.67722 90.6357
lradius 44.1943
lwrist -7.70649
lhand -11.692 9.36715
lfingers 7.12502
lthumb 14.3537 38.8509
rfemur -33.8806 0.362961 21.2453
rtibia 36.8758
rfoot -16.3433 -3.17682
rtoes 11.99
lfemur -18.7506 -5.70124 -17.1807
ltibia 60.431
lfoot 14.6186 -7.5139
ltoes 2.44537
